<svg id="Layer_1" data-name="Layer 1" xmlns="http://www.w3.org/2000/svg" viewBox="0 0 841.89 595.28"><defs><style>.cls-1{fill:#fff;}</style></defs><polygon class="cls-1" points="397.94 194.14 397.94 178.78 413.34 178.83 511.25 179.17 511.25 280.69 547.59 280.69 547.59 192.54 547.59 48.12 511.25 48.12 511.25 144.22 501.53 144.19 440.34 143.98 397.94 143.83 397.94 80.1 397.94 47.73 362.8 47.76 362.8 98.15 362.8 143.78 362.8 143.86 362.8 178.72 362.8 178.81 362.8 204.23 362.8 280.33 397.94 280.3 397.94 194.14"/><path class="cls-1" d="M547.82,467.3h0l-.58-136.94-.18-43.14H511.8l.28,65,.37,89.18q2.06,1.17,4.08,2.45-2-1.27-4.08-2.45l.13,31.12h-114l0-7.06h0L398,331.18l-.19-44H362.53l.26,62.16.52,123.11-.13.93v.4c2.67-.22,5.31-.53,7.92-.9-2.61.37-5.24.68-7.91.91l-.32,26.85,18.66.08h166l.34-28.27h0Z"/><path class="cls-1" d="M556.66,405.58l.06,6.38.2,18.33,0-.21a79.54,79.54,0,0,0,15.5,43.48c12.75,17,32.17,27.73,54.07,27.48l50.3-.59L676.49,475l-50.29.59A42.93,42.93,0,0,1,595.58,463a51,51,0,0,1-15-33.23l86.32-1-.26-24.7-86.43,1L580,385.4l-.24-22.79,20.84-.24,1.49-1.72c10-11.21,22.42-18.33,35.76-24.16H556l.26,25.44,0,.95.44,41.85v.64"/><path class="cls-1" d="M602.11,360.65l-1.49,1.72,74.68-.86L675,336.06l-37.17.43C624.53,342.32,612.1,349.44,602.11,360.65Z"/><path class="cls-1" d="M164.39,285V497.3h80.73a56.72,56.72,0,0,0,10.93,28,57.74,57.74,0,0,0,7.22,7.92,51.36,51.36,0,0,0,36.3,14.36h15.64V515.48H299.57a22.25,22.25,0,0,1-14.23-5.1,24,24,0,0,1-8.62-13.08l77-.24V285H164.39Zm157.25,32.84V464.44H276V375.3H244.81v89.14H196.45V317.87H321.64Z"/><path class="cls-1" d="M405.55,467.16h96.91V188.42H405.55Zm6-272.74h84.91V461.16H411.55Z"/><path class="cls-1" d="M627.54,287.22H605A23.74,23.74,0,0,0,581.3,311V332.7h70V311A23.74,23.74,0,0,0,627.54,287.22ZM632,332l-1.74-1.34a61,61,0,0,1-14.07-13.55A58.43,58.43,0,0,1,602.56,331l-1.71,1.38-10.17-14.71c7.88-6.26,15.76-12.41,15.63-24.14l0-3.71,19.34-.22,0,3.7c.12,11.49,8.12,17.7,16.24,23.78Z"/><path class="cls-1" d="M565.46,275.35H665.8a4.67,4.67,0,0,1,4.14-4.14V56.49a4.67,4.67,0,0,1-4.14-4.14H565.46a4.69,4.69,0,0,1-4.14,4.14V271.21A4.69,4.69,0,0,1,565.46,275.35ZM613.46,54,620.58,59,609.36,74l-7.06-4.86Zm38,26.75.07,13.27L596,94.33l.12,22.17,50.26-.25.07,12.89-50.19.24a26.07,26.07,0,0,0,26.37,24l29.24-.15.07,13.27-29.24.15c-21.68.1-39.11-16.37-40.23-37.24l-10.43.05L572,116.62l10.44-.05L582.3,94.4l-10.64.06-.07-13.28ZM575.83,254.64a27,27,0,0,0,3.76-2.9,12.66,12.66,0,0,0,2.57-3.9,18.27,18.27,0,0,0,1-6.29l.81-55-10-.13.17-11.92,32.38.43,33.37,39.6.93-39.15,12,.16-1.13,77-12.33-.17.28-19.43-38.89-46.14-4.49-.06-.81,55c-.12,8.39-3,14.94-8.61,19.73a32.32,32.32,0,0,1-4.12,3l-5,3.4L570.76,258Z"/><path class="cls-1" d="M560.84,280.33H670.41a4.87,4.87,0,0,1,4.87-4.87V53a4.87,4.87,0,0,1-4.87-4.87H560.84A4.87,4.87,0,0,1,556,53V275.46A4.87,4.87,0,0,1,560.84,280.33Zm-.52-224.81h.5a3.67,3.67,0,0,0,3.66-3.67v-.5H666.77v.5a3.67,3.67,0,0,0,3.67,3.67h.5V272.19h-.5a3.66,3.66,0,0,0-3.67,3.66v.5H564.48v-.5a3.66,3.66,0,0,0-3.66-3.66h-.5Z"/><path class="cls-1" d="M239,47.73H160.84V83.45h-.05v90.88a114.11,114.11,0,0,0,.63,11.94,100.19,100.19,0,0,0,13.15,40.43,104.77,104.77,0,0,0,36.92,37.63,95.35,95.35,0,0,0,51,14.22h91.19V242.83H262.53A62.36,62.36,0,0,1,229,233.47a68.39,68.39,0,0,1-24.15-24.8,65.55,65.55,0,0,1-9.19-34.34V83.45H353.72V47.73H239Z"/></svg>